#N canvas 54 32 376 329 12;
#X obj 54 22 notein;
#X floatatom 27 74 5 0 0 1 note - - 0;
#X floatatom 116 73 5 0 0 1 velocity - - 0;
#X floatatom 230 71 5 0 0 1 channel - - 0;
#X obj 27 116 mtof;
#X obj 30 148 osc~;
#X obj 32 277 dac~;
#X obj 113 116 / 127;
#X obj 35 220 *~;
#X connect 0 0 1 0;
#X connect 0 1 2 0;
#X connect 0 2 3 0;
#X connect 1 0 4 0;
#X connect 2 0 7 0;
#X connect 4 0 5 0;
#X connect 5 0 8 0;
#X connect 7 0 8 1;
#X connect 8 0 6 0;
#X connect 8 0 6 1;
