#N canvas 867 239 2598 1154 12;
#X obj 111 15 inlet;
#X obj 73 134 send sine;
#X obj 167 136 send phase;
#X obj 267 106 20;
#X obj 362 138 send decay;
#X obj 269 147 send attack;
#X floatatom 633 238 5 0 0 0 Initial_output_volume - outputVolume;
#X floatatom 630 268 5 0 0 0 fx_send_level - fxSend;
#X floatatom 632 302 5 0 0 2 reverb_liveliness - reverbLiveliness;
#X obj 516 133 101;
#X obj 687 119 80;
#X obj 888 55 send vol1;
#X obj 802 201 send fxm1;
#X obj 899 97 send vol2;
#X obj 755 77 127;
#X obj 809 260 send fxm2;
#X obj 71 103 100;
#X obj 165 105 5;
#X connect 0 0 3 0;
#X connect 0 0 9 0;
#X connect 0 0 10 0;
#X connect 0 0 14 0;
#X connect 0 0 16 0;
#X connect 0 0 17 0;
#X connect 3 0 5 0;
#X connect 3 0 4 0;
#X connect 9 0 6 0;
#X connect 9 0 7 0;
#X connect 9 0 8 0;
#X connect 10 0 12 0;
#X connect 10 0 15 0;
#X connect 14 0 11 0;
#X connect 14 0 13 0;
#X connect 16 0 1 0;
#X connect 17 0 2 0;
