#N canvas 44 88 1251 1074 12;
#X obj 154 9 inlet;
#X obj 155 50 bng 15 250 50 0 empty empty empty 17 7 0 10 -262144 -1
-1;
#X obj 377 146 Controllers;
#X obj 238 146 PCMIDIComms;
#X obj 164 92 trigger b b b;
#X obj 92 145 SoundOutput;
#X connect 0 0 1 0;
#X connect 1 0 4 0;
#X connect 4 0 5 0;
#X connect 4 1 3 0;
#X connect 4 2 2 0;
