#N canvas 1627 509 741 579 12;
#X obj 68 34 bng 15 250 50 0 empty empty empty 17 7 0 10 -262144 -1
-1;
#X msg 68 60 0 \, 1 200;
#X obj 68 89 line~;
#X obj 68 149 *~ 20;
#X obj 68 185 cos~;
#X obj 68 234 dac~;
#X obj 114 118 sqrt~;
#X connect 0 0 1 0;
#X connect 1 0 2 0;
#X connect 2 0 6 0;
#X connect 3 0 4 0;
#X connect 4 0 5 0;
#X connect 4 0 5 1;
#X connect 6 0 3 0;
