#N canvas 67 29 261 281 12;
#X obj 68 34 bng 15 250 50 0 empty empty empty 17 7 0 10 #fcfcfc #000000
#000000;
#X msg 68 60 0 \, 1 200;
#X obj 68 89 line~;
#X obj 68 121 *~ 20;
#X obj 68 157 cos~;
#X obj 68 206 dac~;
#X connect 0 0 1 0;
#X connect 1 0 2 0;
#X connect 2 0 3 0;
#X connect 3 0 4 0;
#X connect 4 0 5 0;
#X connect 4 0 5 1;
