#N canvas 2096 676 855 704 12;
#X obj 54 22 notein;
#X floatatom 27 74 5 0 0 1 note - -;
#X floatatom 116 73 5 0 0 1 velocity - -;
#X floatatom 230 71 5 0 0 1 channel - -;
#X obj 27 116 mtof;
#X obj 28 159 osc~;
#X obj 30 216 dac~;
#X obj 28 183 *~ 1;
#X connect 0 0 1 0;
#X connect 0 1 2 0;
#X connect 0 2 3 0;
#X connect 1 0 4 0;
#X connect 4 0 5 0;
#X connect 5 0 7 0;
#X connect 7 0 6 0;
#X connect 7 0 6 1;
