#N canvas 1692 952 642 808 12;
#X obj 78 67 bng 15 250 50 0 empty empty empty 17 7 0 10 -262144 -1
-1;
#X msg 79 99 0 \, 1 200;
#X obj 78 137 line~;
#X obj 77 254 cos~;
#X obj 75 296 dac~;
#X obj 78 174 sqrt~;
#X obj 77 218 *~ 40;
#X connect 0 0 1 0;
#X connect 1 0 2 0;
#X connect 2 0 5 0;
#X connect 3 0 4 0;
#X connect 3 0 4 1;
#X connect 5 0 6 0;
#X connect 6 0 3 0;
