#N canvas 1975 590 984 842 12;
#X obj 101 109 bng 15 250 50 0 empty empty empty 17 7 0 10 -262144
-1 -1;
#X obj 101 173 line~;
#X obj 101 207 sqrt~;
#X obj 101 275 -~ 0.25;
#X obj 101 307 cos~;
#X obj 101 243 *~ 20;
#X obj 109 368 dac~;
#X msg 101 140 0 \, 1 200;
#X text 109 -86 comment;
#X obj 253 108 bng 15 250 50 0 empty empty empty 17 7 0 10 -262144
-1 -1;
#X obj 253 172 line~;
#X obj 253 206 sqrt~;
#X obj 253 274 -~ 0.25;
#X obj 253 306 cos~;
#X msg 253 139 0 \, 1 200;
#X obj 253 242 *~ 50;
#X obj 125 13 tgl 15 0 empty empty empty 17 7 0 10 -262144 -1 -1 0
1;
#X obj 125 41 metro 600;
#X obj 236 41 metro 300;
#X connect 0 0 7 0;
#X connect 1 0 2 0;
#X connect 2 0 5 0;
#X connect 3 0 4 0;
#X connect 4 0 6 0;
#X connect 5 0 3 0;
#X connect 7 0 1 0;
#X connect 9 0 14 0;
#X connect 10 0 11 0;
#X connect 11 0 15 0;
#X connect 12 0 13 0;
#X connect 13 0 6 1;
#X connect 14 0 10 0;
#X connect 15 0 12 0;
#X connect 16 0 17 0;
#X connect 16 0 18 0;
#X connect 17 0 0 0;
#X connect 18 0 9 0;
