#N canvas 1976 423 895 742 12;
#X obj 79 77 bng 15 250 50 0 empty empty Kick 17 7 0 10 -262144 -1
-1;
#X msg 79 119 0 \, 1 200;
#X obj 80 157 line~;
#X obj 84 271 cos~;
#X obj 86 305 dac~;
#X obj 83 237 *~ 20;
#X obj 202 195 sqrt~;
#X connect 0 0 1 0;
#X connect 1 0 2 0;
#X connect 2 0 6 0;
#X connect 3 0 4 0;
#X connect 3 0 4 1;
#X connect 5 0 3 0;
#X connect 6 0 5 0;
