#N canvas 554 605 2790 1183 12;
#X obj 115 8 ctlin;
#X floatatom 67 68 5 0 0 0 value - -;
#X floatatom 207 66 5 0 0 0 controller - -;
#X msg 226 173 get \$1 1;
#X msg 53 436 set \; \$1 \$2;
#X obj 37 151 trigger bang float;
#X obj 214 135 - 21;
#X obj 55 398 pack send f;
#X text 252 133 subtract 21 to get an index;
#X text 298 171 use the index on a store;
#X text 228 368 store of message names;
#X text 62 171 trigger a send on each input, f 13;
#X text 159 398 create a send command;
#X text 107 440 perform the send command;
#X obj 436 6 inlet;
#X obj 433 61 print MIDI comms starting with a;
#X floatatom 809 114 3 0 0 0 - - -;
#X obj 754 19 notein, f 24;
#X obj 749 81 stripnote;
#X floatatom 750 113 3 0 0 0 - - -;
#X text 751 4 MIDI IN;
#X obj 892 154 spigot;
#X obj 958 154 spigot;
#X obj 887 255 pack 0 0 0;
#X obj 887 220 - 1;
#X obj 932 93 == 1;
#X obj 933 57 % 8;
#X text 967 59 Wrap the channel range;
#X obj 904 193 poly 6 1;
#X obj 886 288 clone Voice 6;
#X obj 728 293 pack f f f;
#X obj 999 188 send displayNote;
#X floatatom 1032 22 5 0 0 0 - - -;
#X obj 200 276 list store attack decay sine phase fxm1 fxm2 reverbLevel
reverbLiveliness;
#X obj 591 127 receive keySelect;
#X floatatom 593 159 5 0 0 0 - - -;
#N canvas 2372 815 1296 454 launchPadSounds 1;
#X obj 39 149 send kickSound;
#X obj 153 152 send snareSound;
#X obj 298 193 send tomtomSound;
#X obj 427 184 send rideSound;
#X obj 425 152 send splashSound;
#X obj 426 127 send clapSound;
#X obj 420 95 send cowbellSound;
#X obj 125 77 route 40 41 42 43 48 49 50;
#X obj 127 27 inlet;
#X connect 7 0 0 0;
#X connect 7 1 1 0;
#X connect 7 2 2 0;
#X connect 7 3 3 0;
#X connect 7 4 4 0;
#X connect 7 5 5 0;
#X connect 7 6 6 0;
#X connect 8 0 7 0;
#X restore 597 446 pd launchPadSounds;
#N canvas 503 87 1215 561 CheeseBoxSounds 1;
#X obj 18 162 send kickSound;
#X obj 132 165 send snareSound;
#X obj 277 206 send tomtomSound;
#X obj 406 197 send rideSound;
#X obj 404 165 send splashSound;
#X obj 405 140 send clapSound;
#X obj 399 108 send cowbellSound;
#X obj 104 90 route 36 40 48 59 55 39 56;
#X text 164 248 Cheesebox Mappings;
#X obj 112 11 inlet;
#X connect 7 0 0 0;
#X connect 7 1 1 0;
#X connect 7 2 2 0;
#X connect 7 3 3 0;
#X connect 7 4 4 0;
#X connect 7 5 5 0;
#X connect 7 6 6 0;
#X connect 9 0 7 0;
#X restore 776 448 pd CheeseBoxSounds;
#X obj 599 384 spigot;
#X obj 780 372 spigot;
#X obj 460 203 == 1;
#X obj 659 194 == 0;
#X obj 227 234 spigot;
#X obj 268 314 list store attack decay sine phase vol1 vol2 vol3 vol4
fxm1 fxm2 fxm3 fxm4 reverbLevel reverbLiveliness reverbCrossover reverbDamp
;
#X connect 0 0 1 0;
#X connect 0 1 2 0;
#X connect 1 0 5 0;
#X connect 2 0 6 0;
#X connect 3 0 42 0;
#X connect 5 0 7 0;
#X connect 5 1 7 1;
#X connect 6 0 3 0;
#X connect 7 0 4 0;
#X connect 14 0 15 0;
#X connect 17 0 18 0;
#X connect 17 0 21 0;
#X connect 17 1 18 1;
#X connect 17 1 22 0;
#X connect 17 2 26 0;
#X connect 17 2 32 0;
#X connect 18 0 19 0;
#X connect 18 1 16 0;
#X connect 18 1 30 1;
#X connect 19 0 30 0;
#X connect 21 0 28 0;
#X connect 21 0 31 0;
#X connect 22 0 28 1;
#X connect 23 0 29 0;
#X connect 24 0 23 0;
#X connect 25 0 21 1;
#X connect 25 0 22 1;
#X connect 26 0 25 0;
#X connect 26 0 30 2;
#X connect 28 0 24 0;
#X connect 28 1 23 1;
#X connect 28 2 23 2;
#X connect 30 0 38 0;
#X connect 30 0 39 0;
#X connect 33 0 7 0;
#X connect 34 0 35 0;
#X connect 35 0 40 0;
#X connect 35 0 41 0;
#X connect 38 0 36 0;
#X connect 39 0 37 0;
#X connect 40 0 38 1;
#X connect 40 0 42 1;
#X connect 41 0 39 1;
#X connect 41 0 43 0;
#X connect 42 0 33 0;
#X connect 43 0 7 0;
