#N canvas 1960 207 961 668 12;
#X obj 369 142 loadbang;
#X obj 369 198 bng 15 250 50 0 empty empty empty 17 7 0 10 -262144
-1 -1;
#X obj 33 144 vsl 15 128 0 127 0 0 attack attack Attack -10 -9 0 10
-4160 -1 -1 10400 1;
#X obj 72 144 vsl 15 128 0 127 0 0 decay decay Decay -10 -9 0 10 -4160
-1 -1 8800 1;
#X obj 143 144 vsl 15 128 0 127 0 0 phase phase Phase -10 -9 0 10 -4160
-1 -1 4000 1;
#X obj 110 144 vsl 15 128 0 127 0 0 sine sine Sine -10 -9 0 10 -4160
-1 -1 3200 1;
#X obj 198 143 vsl 15 128 0 127 0 0 fxm1 fxm1 Keys 5 -9 0 10 -4034
-1 -1 13600 1;
#X obj 231 143 vsl 15 128 0 127 0 0 fxm2 fxm2 Drums 5 -9 0 10 -4034
-1 -1 5800 1;
#X obj 285 143 vsl 15 128 0 127 0 0 reverbLevel reverbLevel Level -8
-9 0 10 -258112 -1 -1 10600 1;
#X obj 315 143 vsl 15 128 0 127 0 0 reverbLiveliness reverbLiveliness
Live -5 -9 0 10 -258112 -1 -1 3200 1;
#X text 74 86 SYNTH;
#X text 399 296 Rob Miles;
#X text 228 83 REVERB;
#X text 115 44 PC SYNTHBOX Version 1.2;
#X obj 369 249 PCStartup;
#X obj 361 44 vradio 15 1 0 2 keySelect empty Keyboard 0 -8 0 10 -262144
-1 -1 0;
#X text 385 41 CheeseBox;
#X text 386 58 LaunchKey;
#X connect 0 0 1 0;
#X connect 1 0 14 0;
