#N canvas 1558 403 1251 1074 12;
#X obj 261 142 SerialComms;
#X obj 154 9 inlet;
#X obj 155 50 bng 15 250 50 0 empty empty empty 17 7 0 10 -262144 -1
-1;
#X obj 83 201 Display;
#X obj 35 208 bng 15 250 50 0 empty empty empty 17 7 0 10 -262144 -1
-1;
#X obj 25 254 delay 1000 1 msec;
#X obj 27 307 send randomFill;
#X obj 192 256 delay 2000 1 msec;
#X obj 188 307 send fillGreen;
#X obj 149 172 SoundOutput;
#X obj 377 146 Controllers;
#X obj 164 92 trigger b b b b b b;
#X obj 187 144 PCMIDIComms;
#X connect 1 0 2 0;
#X connect 2 0 11 0;
#X connect 4 0 5 0;
#X connect 4 0 7 0;
#X connect 5 0 6 0;
#X connect 7 0 8 0;
#X connect 11 0 4 0;
#X connect 11 1 3 0;
#X connect 11 2 9 0;
#X connect 11 3 12 0;
#X connect 11 4 0 0;
#X connect 11 5 10 0;
