#N canvas 101 146 887 405 12;
#X obj 739 150 loadbang;
#X obj 739 203 bng 15 250 50 0 empty empty empty 17 7 0 10 #fcfcfc
#000000 #000000;
#X text 29 320 Rob Miles;
#X obj 739 254 PCStartup;
#X text 76 32 PC Chocolate SynthBox Version 1;
#X obj 553 144 vsl 15 128 0 127 0 0 outputVolume outputVolume Master
-10 -9 0 10 #fc0400 #000000 #000000 0 1;
#X obj 30 144 vsl 15 128 0 127 0 0 attack attack Attack -10 -9 0 10
#0400fc #000000 #000000 0 1;
#X obj 72 144 vsl 15 128 0 127 0 0 decay decay Decay -10 -9 0 10 #0400fc
#000000 #000000 0 1;
#X obj 143 144 vsl 15 128 0 127 0 0 phase phase Phase -10 -9 0 10 #0400fc
#000000 #000000 0 1;
#X obj 110 144 vsl 15 128 0 127 0 0 sine sine Sine -10 -9 0 10 #0400fc
#000000 #000000 0 1;
#X obj 190 144 vsl 15 128 0 127 0 0 vol1 vol1 1 5 -9 0 10 #f8fc00 #000000
#000000 0 1;
#X obj 212 144 vsl 15 128 0 127 0 0 vol2 vol2 2 5 -9 0 10 #f8fc00 #000000
#000000 0 1;
#X obj 234 144 vsl 15 128 0 127 0 0 vol3 vol3 3 5 -9 0 10 #f8fc00 #000000
#000000 0 1;
#X obj 256 144 vsl 15 128 0 127 0 0 vol4 vol4 4 5 -9 0 10 #f8fc00 #000000
#000000 0 1;
#X obj 303 144 vsl 15 128 0 127 0 0 fxm1 fxm1 1 5 -9 0 10 #00fc04 #000000
#000000 0 1;
#X obj 325 144 vsl 15 128 0 127 0 0 fxm2 fxm2 2 5 -9 0 10 #00fc04 #000000
#000000 0 1;
#X obj 347 144 vsl 15 128 0 127 0 0 fxm3 fxm3 3 5 -9 0 10 #00fc04 #000000
#000000 0 1;
#X obj 369 144 vsl 15 128 0 127 0 0 fxm4 fxm4 4 5 -9 0 10 #00fc04 #000000
#000000 0 1;
#X obj 413 144 vsl 15 128 0 127 0 0 reverbLevel reverbLevel Level -8
-9 0 10 #fc00fc #000000 #000000 0 1;
#X obj 443 144 vsl 15 128 0 127 0 0 reverbLiveliness reverbLiveliness
Live -5 -9 0 10 #fc00fc #000000 #000000 0 1;
#X obj 471 144 vsl 15 128 0 127 0 0 reverbCrossover reverbCrossover
Cross -5 -9 0 10 #fc00fc #000000 #000000 0 1;
#X obj 505 144 vsl 15 128 0 127 0 0 reverbDamp reverbDamp Damp -5 -9
0 10 #fc00fc #000000 #000000 0 1;
#X text 74 86 SYNTH;
#X text 210 87 LEVELS;
#X text 302 87 REVERB SEND;
#X text 442 87 REVERB;
#X connect 0 0 1 0;
#X connect 1 0 3 0;
